<svg width="559" height="904" viewBox="0 0 559 904" fill="none" xmlns="http://www.w3.org/2000/svg">
<path d="M162.854 37.9395L162.873 37.925L162.891 37.9087C174.476 27.356 197.175 10.9017 233.525 3.87049C269.817 -3.1496 319.759 -0.784615 385.888 26.2859V77.6057C287.251 29.2384 218.858 49.168 190.889 78.061C176.882 92.5305 171.287 109.042 169.193 121.926C168.146 128.369 167.973 133.908 168.062 137.839C168.107 139.805 168.217 141.369 168.317 142.444C168.366 142.982 168.413 143.397 168.448 143.679C168.465 143.82 168.48 143.928 168.49 144.001C168.494 144.032 168.497 144.057 168.5 144.075C168.515 171.826 185.409 198.495 251.619 240.203L251.618 240.203L251.629 240.21C272.244 252.474 285.892 260.333 295.752 266.011C305.902 271.856 312.039 275.39 317.63 279.039C326.188 284.624 333.441 290.465 351.866 305.303C357.131 309.542 363.308 314.517 370.688 320.429C403.75 346.917 418.227 383.535 420.188 417.711C422.151 451.911 411.577 483.581 394.65 500.182C377.65 516.854 358.16 527.321 341.553 533.62C324.935 539.923 311.243 542.039 305.862 542.039H163.054V531.552H305.862H306.004L306.125 531.477C314.501 526.3 321.892 522.064 328.462 518.299C330.442 517.164 332.349 516.071 334.185 515.009C342.103 510.426 348.723 506.396 354.357 501.901C365.661 492.882 372.959 482.023 378.98 461.178C385.01 440.303 383.789 422.928 376.697 405.757C369.616 388.614 356.692 371.696 339.378 351.712L339.359 351.69L339.338 351.671C317.51 331.619 302.877 323.595 285.44 314.897C283.837 314.097 282.21 313.292 280.552 312.471C264.199 304.375 244.782 294.763 214.784 274.127C209.498 270.491 204.428 267.047 199.568 263.746C153.313 232.329 126.048 213.809 112.983 165.409C98.555 111.959 121.559 68.8283 162.854 37.9395Z" fill="url(#paint0_linear_11_28)" stroke="white"/>
<rect x="68" y="256.539" width="173" height="35" fill="black"/>
<rect x="124" y="673.539" width="88" height="9" fill="black"/>
<rect x="247" y="673.539" width="87" height="9" fill="black"/>
<path d="M223.584 546.662C146.72 547.383 309.876 545.854 309.876 545.854C309.876 545.854 421.206 776.038 480.763 777.11C540.319 778.183 465.907 784.929 418.136 771.399C370.364 757.869 300.448 545.942 223.584 546.662Z" fill="url(#paint1_linear_11_28)"/>
<rect x="84" y="542.539" width="33" height="232" fill="url(#paint2_linear_11_28)"/>
<rect x="145" y="507.539" width="73" height="47" fill="white"/>
<rect x="218" y="256.539" width="23" height="518" fill="url(#paint3_linear_11_28)"/>
<path d="M76.9375 851.591V842.455H116.278V851.591H102.165V889H91.0739V851.591H76.9375ZM177.432 842.455H188.659V872.477C188.659 875.947 187.833 878.97 186.182 881.545C184.53 884.106 182.227 886.091 179.273 887.5C176.318 888.894 172.886 889.591 168.977 889.591C165.023 889.591 161.568 888.894 158.614 887.5C155.659 886.091 153.364 884.106 151.727 881.545C150.091 878.97 149.273 875.947 149.273 872.477V842.455H160.523V871.5C160.523 873.106 160.871 874.538 161.568 875.795C162.28 877.053 163.273 878.038 164.545 878.75C165.818 879.462 167.295 879.818 168.977 879.818C170.659 879.818 172.129 879.462 173.386 878.75C174.659 878.038 175.652 877.053 176.364 875.795C177.076 874.538 177.432 873.106 177.432 871.5V842.455ZM248.369 856.409C248.218 854.742 247.544 853.447 246.347 852.523C245.165 851.583 243.475 851.114 241.278 851.114C239.824 851.114 238.612 851.303 237.642 851.682C236.672 852.061 235.945 852.583 235.46 853.25C234.975 853.902 234.725 854.652 234.71 855.5C234.68 856.197 234.816 856.811 235.119 857.341C235.438 857.871 235.892 858.341 236.483 858.75C237.089 859.144 237.816 859.492 238.665 859.795C239.513 860.098 240.468 860.364 241.528 860.591L245.528 861.5C247.831 862 249.862 862.667 251.619 863.5C253.392 864.333 254.877 865.326 256.074 866.477C257.286 867.629 258.203 868.955 258.824 870.455C259.445 871.955 259.763 873.636 259.778 875.5C259.763 878.439 259.021 880.962 257.551 883.068C256.081 885.174 253.968 886.788 251.21 887.909C248.468 889.03 245.157 889.591 241.278 889.591C237.384 889.591 233.991 889.008 231.097 887.841C228.203 886.674 225.953 884.902 224.347 882.523C222.741 880.144 221.915 877.136 221.869 873.5H232.642C232.733 875 233.134 876.25 233.847 877.25C234.559 878.25 235.536 879.008 236.778 879.523C238.036 880.038 239.491 880.295 241.142 880.295C242.657 880.295 243.945 880.091 245.006 879.682C246.081 879.273 246.907 878.705 247.483 877.977C248.059 877.25 248.354 876.417 248.369 875.477C248.354 874.598 248.081 873.848 247.551 873.227C247.021 872.591 246.203 872.045 245.097 871.591C244.006 871.121 242.612 870.689 240.915 870.295L236.051 869.159C232.021 868.235 228.847 866.742 226.528 864.682C224.21 862.606 223.059 859.803 223.074 856.273C223.059 853.394 223.831 850.871 225.392 848.705C226.953 846.538 229.112 844.848 231.869 843.636C234.627 842.424 237.771 841.818 241.301 841.818C244.907 841.818 248.036 842.432 250.688 843.659C253.354 844.871 255.422 846.576 256.892 848.773C258.362 850.97 259.112 853.515 259.142 856.409H248.369ZM292.96 889V842.455H304.21V861.136H322.551V842.455H333.778V889H322.551V870.295H304.21V889H292.96ZM378.403 889H366.312L382.017 842.455H396.994L412.699 889H400.608L389.676 854.182H389.312L378.403 889ZM376.79 870.682H402.062V879.227H376.79V870.682ZM445.21 889V842.455H464.438C467.922 842.455 470.93 843.083 473.46 844.341C476.006 845.583 477.968 847.371 479.347 849.705C480.725 852.023 481.415 854.773 481.415 857.955C481.415 861.182 480.71 863.924 479.301 866.182C477.892 868.424 475.892 870.136 473.301 871.318C470.71 872.485 467.642 873.068 464.097 873.068H451.938V864.205H462.006C463.703 864.205 465.119 863.985 466.256 863.545C467.407 863.091 468.278 862.409 468.869 861.5C469.46 860.576 469.756 859.394 469.756 857.955C469.756 856.515 469.46 855.326 468.869 854.386C468.278 853.432 467.407 852.72 466.256 852.25C465.104 851.765 463.688 851.523 462.006 851.523H456.46V889H445.21ZM471.415 867.727L483.006 889H470.733L459.369 867.727H471.415Z" fill="black"/>
<defs>
<linearGradient id="paint0_linear_11_28" x1="264.542" y1="0" x2="264.542" y2="542.539" gradientUnits="userSpaceOnUse">
<stop/>
<stop offset="1" stop-color="#666666"/>
</linearGradient>
<linearGradient id="paint1_linear_11_28" x1="233.794" y1="520.197" x2="476.99" y2="801.126" gradientUnits="userSpaceOnUse">
<stop/>
<stop offset="1" stop-color="#666666"/>
</linearGradient>
<linearGradient id="paint2_linear_11_28" x1="100.5" y1="542.539" x2="100.5" y2="774.539" gradientUnits="userSpaceOnUse">
<stop/>
<stop offset="1" stop-color="#666666"/>
</linearGradient>
<linearGradient id="paint3_linear_11_28" x1="229.5" y1="256.539" x2="229.5" y2="774.539" gradientUnits="userSpaceOnUse">
<stop/>
<stop offset="1" stop-color="#666666"/>
</linearGradient>
</defs>
</svg>
